<svg width="128" height="128" viewBox="0 0 128 128" fill="none" xmlns="http://www.w3.org/2000/svg">
<rect width="128" height="128" rx="2" fill="#0E1647"/>
<path fill-rule="evenodd" clip-rule="evenodd" d="M84.6966 30.78H85.432C85.3112 30.7602 85.1882 30.75 85.0643 30.75C84.9404 30.75 84.8175 30.7602 84.6966 30.78ZM85.756 58.5623C86.1989 58.1004 86.7995 57.8409 87.4258 57.8409C88.0521 57.8409 88.6528 58.1004 89.0957 58.5623C89.5385 59.0241 89.7873 59.6506 89.7873 60.3037V76.312C89.7882 78.7829 88.9973 81.1832 87.5403 83.1317C86.0832 85.0801 84.0437 86.4648 81.7456 87.0659C79.4475 87.6669 77.0227 87.4498 74.8565 86.449C72.6903 85.4483 70.9069 83.7212 69.7896 81.5423C68.6724 79.3634 68.2854 76.8576 68.6901 74.423C69.0948 71.9884 70.268 69.7647 72.0233 68.1052C73.7786 66.4456 76.0154 65.4454 78.3782 65.2635C80.741 65.0816 83.0944 65.7284 85.0643 67.1011V60.3037C85.0643 59.6506 85.3131 59.0241 85.756 58.5623ZM72.2981 53.1895C72.1492 53.7454 71.8178 54.2291 71.3618 54.5562C71.1151 54.7326 70.8387 54.859 70.5471 54.9287L52.0034 59.765V86.1633C52.0043 88.6342 51.2134 91.0345 49.7564 92.9829C48.2994 94.9313 46.2598 96.316 43.9617 96.9171C41.6636 97.5182 39.2389 97.301 37.0726 96.3003C34.9064 95.2995 33.123 93.5725 32.0058 91.3936C30.8885 89.2146 30.5015 86.7088 30.9062 84.2743C31.3109 81.8397 32.4841 79.616 34.2394 77.9564C35.9948 76.2969 38.2315 75.2967 40.5943 75.1148C42.9571 74.9328 45.3105 75.5796 47.2805 76.9523V43.0641C47.2805 42.5149 47.4566 41.9815 47.7807 41.5486C48.1049 41.1158 48.5584 40.8083 49.0693 40.6751L65.6971 36.356C65.9487 36.2899 66.2091 36.268 66.4676 36.2913C67.0894 36.3507 67.6634 36.6646 68.0639 37.1642C68.4644 37.6638 68.6589 38.3085 68.6047 38.9573C68.2057 43.2424 69.3646 47.5275 71.8518 50.9635C71.9825 51.1318 72.0916 51.317 72.1765 51.5146C72.404 52.0408 72.447 52.6336 72.2981 53.1895Z" fill="url(#paint0_linear_311_6810)"/>
<path d="M87.0383 30.78L87.6013 32.3059C88.2897 34.1717 89.3725 35.8661 90.7752 37.2729C92.178 38.6796 93.8676 39.7654 95.7281 40.4559L97.2499 41.0208L95.7284 41.5854C93.8678 42.2758 92.1782 43.3616 90.7754 44.7684C89.3726 46.1751 88.2898 47.8695 87.6013 49.7354L87.038 51.2616L86.4753 49.7357C85.7868 47.8698 84.704 46.1753 83.3012 44.7685C81.8984 43.3617 80.2088 42.2758 78.3482 41.5854L76.8267 41.0205L78.3482 40.4562C80.2087 39.7657 81.8983 38.6798 83.3011 37.273C84.7038 35.8662 85.7865 34.1718 86.475 32.3059L87.0383 30.78Z" fill="url(#paint1_linear_311_6810)"/>
<defs>
<linearGradient id="paint0_linear_311_6810" x1="60.2687" y1="30.75" x2="60.2687" y2="97.25" gradientUnits="userSpaceOnUse">
<stop stop-color="#867DDA"/>
<stop offset="0.61" stop-color="#87A9ED"/>
<stop offset="1" stop-color="#EAEBFF"/>
</linearGradient>
<linearGradient id="paint1_linear_311_6810" x1="92.1441" y1="30.78" x2="72.7822" y2="51.7061" gradientUnits="userSpaceOnUse">
<stop stop-color="#867DDA"/>
<stop offset="0.61" stop-color="#87A9ED"/>
<stop offset="1" stop-color="#EAEBFF"/>
</linearGradient>
</defs>
</svg>
